<mxfile host="app.diagrams.net" modified="2022-06-24T03:07:18.837Z" agent="5.0 (Windows NT 10.0; Win64; x64) AppleWebKit/537.36 (KHTML, like Gecko) Chrome/103.0.0.0 Safari/537.36" etag="BXj8AsLVMWv-t832ov8b" version="20.0.2" type="github">
  <diagram id="kFoBRH7rG0Vgu6dQ8bFF" name="Page-1">
    <mxGraphModel dx="1730" dy="952" grid="1" gridSize="10" guides="1" tooltips="1" connect="1" arrows="1" fold="1" page="1" pageScale="1" pageWidth="1100" pageHeight="850" math="0" shadow="0">
      <root>
        <mxCell id="0" />
        <mxCell id="1" parent="0" />
        <mxCell id="yhgAztLPskg-jy38662N-3" value="topic" style="rounded=0;whiteSpace=wrap;html=1;fillColor=#fff2cc;strokeColor=#d6b656;" parent="1" vertex="1">
          <mxGeometry x="1150" y="198" width="100" height="20" as="geometry" />
        </mxCell>
        <mxCell id="yhgAztLPskg-jy38662N-4" value="name" style="rounded=0;whiteSpace=wrap;html=1;fillColor=#fff2cc;strokeColor=#d6b656;" parent="1" vertex="1">
          <mxGeometry x="1150" y="218" width="100" height="20" as="geometry" />
        </mxCell>
        <mxCell id="yhgAztLPskg-jy38662N-5" value="owner" style="rounded=0;whiteSpace=wrap;html=1;fillColor=#fff2cc;strokeColor=#d6b656;" parent="1" vertex="1">
          <mxGeometry x="1150" y="238" width="100" height="20" as="geometry" />
        </mxCell>
        <mxCell id="yhgAztLPskg-jy38662N-6" value="owner_type" style="rounded=0;whiteSpace=wrap;html=1;fillColor=#fff2cc;strokeColor=#d6b656;" parent="1" vertex="1">
          <mxGeometry x="1150" y="258" width="100" height="20" as="geometry" />
        </mxCell>
        <mxCell id="yhgAztLPskg-jy38662N-7" value="full_name" style="rounded=0;whiteSpace=wrap;html=1;fillColor=#fff2cc;strokeColor=#d6b656;" parent="1" vertex="1">
          <mxGeometry x="1150" y="278" width="100" height="20" as="geometry" />
        </mxCell>
        <mxCell id="yhgAztLPskg-jy38662N-8" value="description" style="rounded=0;whiteSpace=wrap;html=1;fillColor=#fff2cc;strokeColor=#d6b656;" parent="1" vertex="1">
          <mxGeometry x="1150" y="298" width="100" height="20" as="geometry" />
        </mxCell>
        <mxCell id="yhgAztLPskg-jy38662N-9" value="og_image" style="rounded=0;whiteSpace=wrap;html=1;fillColor=#fff2cc;strokeColor=#d6b656;" parent="1" vertex="1">
          <mxGeometry x="1150" y="318" width="100" height="20" as="geometry" />
        </mxCell>
        <mxCell id="yhgAztLPskg-jy38662N-10" value="license" style="rounded=0;whiteSpace=wrap;html=1;fillColor=#fff2cc;strokeColor=#d6b656;" parent="1" vertex="1">
          <mxGeometry x="1150" y="338" width="100" height="20" as="geometry" />
        </mxCell>
        <mxCell id="yhgAztLPskg-jy38662N-11" value="is_archived" style="rounded=0;whiteSpace=wrap;html=1;fillColor=#fff2cc;strokeColor=#d6b656;" parent="1" vertex="1">
          <mxGeometry x="1150" y="358" width="100" height="20" as="geometry" />
        </mxCell>
        <mxCell id="yhgAztLPskg-jy38662N-12" value="is_forked" style="rounded=0;whiteSpace=wrap;html=1;fillColor=#fff2cc;strokeColor=#d6b656;" parent="1" vertex="1">
          <mxGeometry x="1150" y="378" width="100" height="20" as="geometry" />
        </mxCell>
        <mxCell id="yhgAztLPskg-jy38662N-13" value="size" style="rounded=0;whiteSpace=wrap;html=1;fillColor=#fff2cc;strokeColor=#d6b656;" parent="1" vertex="1">
          <mxGeometry x="1150" y="398" width="100" height="20" as="geometry" />
        </mxCell>
        <mxCell id="yhgAztLPskg-jy38662N-14" value="language" style="rounded=0;whiteSpace=wrap;html=1;fillColor=#fff2cc;strokeColor=#d6b656;" parent="1" vertex="1">
          <mxGeometry x="1150" y="418" width="100" height="20" as="geometry" />
        </mxCell>
        <mxCell id="yhgAztLPskg-jy38662N-15" value="tags" style="rounded=0;whiteSpace=wrap;html=1;fillColor=#fff2cc;strokeColor=#d6b656;" parent="1" vertex="1">
          <mxGeometry x="1150" y="438" width="100" height="20" as="geometry" />
        </mxCell>
        <mxCell id="yhgAztLPskg-jy38662N-16" value="open_issues" style="rounded=0;whiteSpace=wrap;html=1;fillColor=#fff2cc;strokeColor=#d6b656;" parent="1" vertex="1">
          <mxGeometry x="1150" y="458" width="100" height="20" as="geometry" />
        </mxCell>
        <mxCell id="yhgAztLPskg-jy38662N-17" value="forks" style="rounded=0;whiteSpace=wrap;html=1;fillColor=#fff2cc;strokeColor=#d6b656;" parent="1" vertex="1">
          <mxGeometry x="1150" y="478" width="100" height="20" as="geometry" />
        </mxCell>
        <mxCell id="yhgAztLPskg-jy38662N-18" value="stars" style="rounded=0;whiteSpace=wrap;html=1;fillColor=#fff2cc;strokeColor=#d6b656;" parent="1" vertex="1">
          <mxGeometry x="1150" y="498" width="100" height="20" as="geometry" />
        </mxCell>
        <mxCell id="yhgAztLPskg-jy38662N-19" value="watchers" style="rounded=0;whiteSpace=wrap;html=1;fillColor=#fff2cc;strokeColor=#d6b656;" parent="1" vertex="1">
          <mxGeometry x="1150" y="518" width="100" height="20" as="geometry" />
        </mxCell>
        <mxCell id="yhgAztLPskg-jy38662N-20" value="has_wiki" style="rounded=0;whiteSpace=wrap;html=1;fillColor=#fff2cc;strokeColor=#d6b656;" parent="1" vertex="1">
          <mxGeometry x="1150" y="538" width="100" height="20" as="geometry" />
        </mxCell>
        <mxCell id="yhgAztLPskg-jy38662N-21" value="has_pages" style="rounded=0;whiteSpace=wrap;html=1;fillColor=#fff2cc;strokeColor=#d6b656;" parent="1" vertex="1">
          <mxGeometry x="1150" y="558" width="100" height="20" as="geometry" />
        </mxCell>
        <mxCell id="yhgAztLPskg-jy38662N-22" value="has_sponsorship" style="rounded=0;whiteSpace=wrap;html=1;fillColor=#fff2cc;strokeColor=#d6b656;" parent="1" vertex="1">
          <mxGeometry x="1150" y="578" width="100" height="20" as="geometry" />
        </mxCell>
        <mxCell id="yhgAztLPskg-jy38662N-23" value="created_at" style="rounded=0;whiteSpace=wrap;html=1;fillColor=#fff2cc;strokeColor=#d6b656;" parent="1" vertex="1">
          <mxGeometry x="1150" y="598" width="100" height="20" as="geometry" />
        </mxCell>
        <mxCell id="yhgAztLPskg-jy38662N-24" value="updated_at" style="rounded=0;whiteSpace=wrap;html=1;fillColor=#fff2cc;strokeColor=#d6b656;" parent="1" vertex="1">
          <mxGeometry x="1150" y="618" width="100" height="20" as="geometry" />
        </mxCell>
        <mxCell id="yhgAztLPskg-jy38662N-55" value="repositories" style="ellipse;whiteSpace=wrap;html=1;fillColor=#dae8fc;strokeColor=#6c8ebf;" parent="1" vertex="1">
          <mxGeometry x="1151" y="140" width="99" height="39" as="geometry" />
        </mxCell>
        <mxCell id="vsU6i-emaXaHSrNS-JvM-31" value="" style="group" vertex="1" connectable="0" parent="1">
          <mxGeometry x="169" y="177" width="762" height="497" as="geometry" />
        </mxCell>
        <mxCell id="vsU6i-emaXaHSrNS-JvM-10" value="created_by" style="rhombus;whiteSpace=wrap;html=1;fillColor=#f8cecc;strokeColor=#b85450;" vertex="1" parent="vsU6i-emaXaHSrNS-JvM-31">
          <mxGeometry x="162" y="265.5" width="120" height="60" as="geometry" />
        </mxCell>
        <mxCell id="vsU6i-emaXaHSrNS-JvM-3" value="Languages" style="ellipse;whiteSpace=wrap;html=1;fillColor=#dae8fc;strokeColor=#6c8ebf;" vertex="1" parent="vsU6i-emaXaHSrNS-JvM-31">
          <mxGeometry y="270.5" width="110" height="50" as="geometry" />
        </mxCell>
        <mxCell id="vsU6i-emaXaHSrNS-JvM-2" value="Languages" style="ellipse;whiteSpace=wrap;html=1;fillColor=#dae8fc;strokeColor=#6c8ebf;" vertex="1" parent="vsU6i-emaXaHSrNS-JvM-31">
          <mxGeometry x="652" y="270.5" width="110" height="50" as="geometry" />
        </mxCell>
        <mxCell id="yhgAztLPskg-jy38662N-32" value="owner_type" style="rounded=0;whiteSpace=wrap;html=1;fillColor=#fff2cc;strokeColor=#d6b656;" parent="vsU6i-emaXaHSrNS-JvM-31" vertex="1">
          <mxGeometry x="332" y="20" width="100" height="20" as="geometry" />
        </mxCell>
        <mxCell id="yhgAztLPskg-jy38662N-37" value="is_archived" style="rounded=0;whiteSpace=wrap;html=1;fillColor=#fff2cc;strokeColor=#d6b656;" parent="vsU6i-emaXaHSrNS-JvM-31" vertex="1">
          <mxGeometry x="331" y="377" width="100" height="20" as="geometry" />
        </mxCell>
        <mxCell id="yhgAztLPskg-jy38662N-39" value="size" style="rounded=0;whiteSpace=wrap;html=1;fillColor=#fff2cc;strokeColor=#d6b656;" parent="vsU6i-emaXaHSrNS-JvM-31" vertex="1">
          <mxGeometry x="331" y="397" width="100" height="20" as="geometry" />
        </mxCell>
        <mxCell id="yhgAztLPskg-jy38662N-42" value="open_issues" style="rounded=0;whiteSpace=wrap;html=1;fillColor=#fff2cc;strokeColor=#d6b656;" parent="vsU6i-emaXaHSrNS-JvM-31" vertex="1">
          <mxGeometry x="331" y="477" width="100" height="20" as="geometry" />
        </mxCell>
        <mxCell id="yhgAztLPskg-jy38662N-43" value="forks" style="rounded=0;whiteSpace=wrap;html=1;fillColor=#fff2cc;strokeColor=#d6b656;" parent="vsU6i-emaXaHSrNS-JvM-31" vertex="1">
          <mxGeometry x="331" y="437" width="100" height="20" as="geometry" />
        </mxCell>
        <mxCell id="yhgAztLPskg-jy38662N-44" value="stars" style="rounded=0;whiteSpace=wrap;html=1;fillColor=#fff2cc;strokeColor=#d6b656;" parent="vsU6i-emaXaHSrNS-JvM-31" vertex="1">
          <mxGeometry x="331" y="457" width="100" height="20" as="geometry" />
        </mxCell>
        <mxCell id="yhgAztLPskg-jy38662N-45" value="watchers" style="rounded=0;whiteSpace=wrap;html=1;fillColor=#fff2cc;strokeColor=#d6b656;" parent="vsU6i-emaXaHSrNS-JvM-31" vertex="1">
          <mxGeometry x="331" y="417" width="100" height="20" as="geometry" />
        </mxCell>
        <mxCell id="yhgAztLPskg-jy38662N-49" value="created_at" style="rounded=0;whiteSpace=wrap;html=1;fillColor=#fff2cc;strokeColor=#d6b656;" parent="vsU6i-emaXaHSrNS-JvM-31" vertex="1">
          <mxGeometry x="490" y="195" width="100" height="20" as="geometry" />
        </mxCell>
        <mxCell id="yhgAztLPskg-jy38662N-51" value="Repositories" style="ellipse;whiteSpace=wrap;html=1;fillColor=#dae8fc;strokeColor=#6c8ebf;" parent="vsU6i-emaXaHSrNS-JvM-31" vertex="1">
          <mxGeometry x="332" y="276" width="99" height="39" as="geometry" />
        </mxCell>
        <mxCell id="yhgAztLPskg-jy38662N-52" value="&lt;u&gt;full_name&lt;/u&gt;" style="rounded=0;whiteSpace=wrap;html=1;fillColor=#fff2cc;strokeColor=#d6b656;" parent="vsU6i-emaXaHSrNS-JvM-31" vertex="1">
          <mxGeometry x="331" y="356" width="100" height="20" as="geometry" />
        </mxCell>
        <mxCell id="yhgAztLPskg-jy38662N-57" value="Owners" style="ellipse;whiteSpace=wrap;html=1;fillColor=#dae8fc;strokeColor=#6c8ebf;" parent="vsU6i-emaXaHSrNS-JvM-31" vertex="1">
          <mxGeometry x="332" y="91" width="99" height="39" as="geometry" />
        </mxCell>
        <mxCell id="yhgAztLPskg-jy38662N-59" value="&lt;u&gt;owner&lt;/u&gt;" style="rounded=0;whiteSpace=wrap;html=1;fillColor=#fff2cc;strokeColor=#d6b656;" parent="vsU6i-emaXaHSrNS-JvM-31" vertex="1">
          <mxGeometry x="332" width="100" height="20" as="geometry" />
        </mxCell>
        <mxCell id="yhgAztLPskg-jy38662N-60" value="Topics" style="ellipse;whiteSpace=wrap;html=1;fillColor=#dae8fc;strokeColor=#6c8ebf;" parent="vsU6i-emaXaHSrNS-JvM-31" vertex="1">
          <mxGeometry x="6" y="276" width="99" height="39" as="geometry" />
        </mxCell>
        <mxCell id="yhgAztLPskg-jy38662N-63" value="&lt;u&gt;topic&lt;/u&gt;" style="rounded=0;whiteSpace=wrap;html=1;fillColor=#fff2cc;strokeColor=#d6b656;" parent="vsU6i-emaXaHSrNS-JvM-31" vertex="1">
          <mxGeometry x="5" y="355" width="100" height="20" as="geometry" />
        </mxCell>
        <mxCell id="yhgAztLPskg-jy38662N-76" value="Languages" style="ellipse;whiteSpace=wrap;html=1;fillColor=#dae8fc;strokeColor=#6c8ebf;" parent="vsU6i-emaXaHSrNS-JvM-31" vertex="1">
          <mxGeometry x="658" y="276.5" width="99" height="39" as="geometry" />
        </mxCell>
        <mxCell id="yhgAztLPskg-jy38662N-77" value="&lt;u&gt;language&lt;/u&gt;" style="rounded=0;whiteSpace=wrap;html=1;fillColor=#fff2cc;strokeColor=#d6b656;" parent="vsU6i-emaXaHSrNS-JvM-31" vertex="1">
          <mxGeometry x="657" y="356.5" width="100" height="20" as="geometry" />
        </mxCell>
        <mxCell id="yhgAztLPskg-jy38662N-98" value="" style="endArrow=none;html=1;rounded=0;exitX=0.5;exitY=1;exitDx=0;exitDy=0;entryX=0.5;entryY=0;entryDx=0;entryDy=0;" parent="vsU6i-emaXaHSrNS-JvM-31" source="vsU6i-emaXaHSrNS-JvM-3" target="yhgAztLPskg-jy38662N-63" edge="1">
          <mxGeometry width="50" height="50" relative="1" as="geometry">
            <mxPoint x="114.99999999999955" y="305.5" as="sourcePoint" />
            <mxPoint x="175" y="305.5" as="targetPoint" />
          </mxGeometry>
        </mxCell>
        <mxCell id="yhgAztLPskg-jy38662N-99" value="" style="endArrow=none;html=1;rounded=0;entryX=0.5;entryY=1;entryDx=0;entryDy=0;exitX=0.5;exitY=0;exitDx=0;exitDy=0;" parent="vsU6i-emaXaHSrNS-JvM-31" source="yhgAztLPskg-jy38662N-52" target="yhgAztLPskg-jy38662N-51" edge="1">
          <mxGeometry width="50" height="50" relative="1" as="geometry">
            <mxPoint x="341" y="385" as="sourcePoint" />
            <mxPoint x="391" y="335" as="targetPoint" />
          </mxGeometry>
        </mxCell>
        <mxCell id="yhgAztLPskg-jy38662N-105" value="" style="endArrow=none;html=1;rounded=0;exitX=0.5;exitY=0;exitDx=0;exitDy=0;entryX=0.5;entryY=1;entryDx=0;entryDy=0;" parent="vsU6i-emaXaHSrNS-JvM-31" source="yhgAztLPskg-jy38662N-77" target="vsU6i-emaXaHSrNS-JvM-2" edge="1">
          <mxGeometry width="50" height="50" relative="1" as="geometry">
            <mxPoint x="346" y="386.5" as="sourcePoint" />
            <mxPoint x="730" y="329.5" as="targetPoint" />
          </mxGeometry>
        </mxCell>
        <mxCell id="yhgAztLPskg-jy38662N-106" value="created_by" style="rhombus;whiteSpace=wrap;html=1;fillColor=#f8cecc;strokeColor=#b85450;" parent="vsU6i-emaXaHSrNS-JvM-31" vertex="1">
          <mxGeometry x="332" y="180" width="99" height="50" as="geometry" />
        </mxCell>
        <mxCell id="yhgAztLPskg-jy38662N-108" value="" style="endArrow=none;html=1;rounded=0;entryX=0.5;entryY=1;entryDx=0;entryDy=0;exitX=0.5;exitY=0;exitDx=0;exitDy=0;shape=link;" parent="vsU6i-emaXaHSrNS-JvM-31" source="yhgAztLPskg-jy38662N-106" target="yhgAztLPskg-jy38662N-57" edge="1">
          <mxGeometry width="50" height="50" relative="1" as="geometry">
            <mxPoint x="380.90999999999957" y="179.9999999999999" as="sourcePoint" />
            <mxPoint x="380.90999999999957" y="138" as="targetPoint" />
          </mxGeometry>
        </mxCell>
        <mxCell id="yhgAztLPskg-jy38662N-114" value="" style="endArrow=none;html=1;rounded=0;exitX=0.5;exitY=0;exitDx=0;exitDy=0;entryX=0.5;entryY=1;entryDx=0;entryDy=0;" parent="vsU6i-emaXaHSrNS-JvM-31" source="yhgAztLPskg-jy38662N-57" target="yhgAztLPskg-jy38662N-32" edge="1">
          <mxGeometry width="50" height="50" relative="1" as="geometry">
            <mxPoint x="380.67" y="91" as="sourcePoint" />
            <mxPoint x="409" y="69" as="targetPoint" />
          </mxGeometry>
        </mxCell>
        <mxCell id="yhgAztLPskg-jy38662N-122" value="" style="endArrow=none;html=1;rounded=0;exitX=1;exitY=0.5;exitDx=0;exitDy=0;entryX=0;entryY=0.5;entryDx=0;entryDy=0;" parent="vsU6i-emaXaHSrNS-JvM-31" source="yhgAztLPskg-jy38662N-106" target="yhgAztLPskg-jy38662N-49" edge="1">
          <mxGeometry width="50" height="50" relative="1" as="geometry">
            <mxPoint x="634" y="260" as="sourcePoint" />
            <mxPoint x="684" y="210" as="targetPoint" />
          </mxGeometry>
        </mxCell>
        <mxCell id="qWaLjU2rss3d1LznA6OW-1" value="" style="endArrow=none;html=1;rounded=0;entryX=0;entryY=0.5;entryDx=0;entryDy=0;exitX=0.5;exitY=0;exitDx=0;exitDy=0;shape=link;" parent="vsU6i-emaXaHSrNS-JvM-31" source="yhgAztLPskg-jy38662N-51" target="qWaLjU2rss3d1LznA6OW-4" edge="1">
          <mxGeometry width="50" height="50" relative="1" as="geometry">
            <mxPoint x="380.5" y="271" as="sourcePoint" />
            <mxPoint x="382" y="239" as="targetPoint" />
          </mxGeometry>
        </mxCell>
        <mxCell id="qWaLjU2rss3d1LznA6OW-4" value="" style="triangle;whiteSpace=wrap;html=1;fillColor=#000000;rotation=-90;" parent="vsU6i-emaXaHSrNS-JvM-31" vertex="1">
          <mxGeometry x="377" y="231" width="10" height="10" as="geometry" />
        </mxCell>
        <mxCell id="vsU6i-emaXaHSrNS-JvM-6" value="classified in" style="rhombus;whiteSpace=wrap;html=1;fillColor=#f8cecc;strokeColor=#b85450;" vertex="1" parent="vsU6i-emaXaHSrNS-JvM-31">
          <mxGeometry x="172.5" y="270.5" width="99" height="50" as="geometry" />
        </mxCell>
        <mxCell id="vsU6i-emaXaHSrNS-JvM-11" value="created_by" style="rhombus;whiteSpace=wrap;html=1;fillColor=#f8cecc;strokeColor=#b85450;" vertex="1" parent="vsU6i-emaXaHSrNS-JvM-31">
          <mxGeometry x="481" y="265.5" width="120" height="60" as="geometry" />
        </mxCell>
        <mxCell id="vsU6i-emaXaHSrNS-JvM-12" value="wrote in" style="rhombus;whiteSpace=wrap;html=1;fillColor=#f8cecc;strokeColor=#b85450;" vertex="1" parent="vsU6i-emaXaHSrNS-JvM-31">
          <mxGeometry x="491.5" y="270.5" width="99" height="50" as="geometry" />
        </mxCell>
        <mxCell id="vsU6i-emaXaHSrNS-JvM-13" value="" style="endArrow=none;html=1;rounded=0;entryX=0;entryY=0.5;entryDx=0;entryDy=0;exitX=1;exitY=0.5;exitDx=0;exitDy=0;" edge="1" parent="vsU6i-emaXaHSrNS-JvM-31" source="vsU6i-emaXaHSrNS-JvM-10" target="yhgAztLPskg-jy38662N-51">
          <mxGeometry width="50" height="50" relative="1" as="geometry">
            <mxPoint x="372" y="449" as="sourcePoint" />
            <mxPoint x="422" y="399" as="targetPoint" />
          </mxGeometry>
        </mxCell>
        <mxCell id="vsU6i-emaXaHSrNS-JvM-14" value="" style="endArrow=none;html=1;rounded=0;entryX=1;entryY=0.5;entryDx=0;entryDy=0;exitX=0;exitY=0.5;exitDx=0;exitDy=0;" edge="1" parent="vsU6i-emaXaHSrNS-JvM-31" source="vsU6i-emaXaHSrNS-JvM-11" target="yhgAztLPskg-jy38662N-51">
          <mxGeometry width="50" height="50" relative="1" as="geometry">
            <mxPoint x="372" y="449" as="sourcePoint" />
            <mxPoint x="422" y="399" as="targetPoint" />
          </mxGeometry>
        </mxCell>
        <mxCell id="vsU6i-emaXaHSrNS-JvM-16" value="" style="triangle;whiteSpace=wrap;html=1;fillColor=#000000;rotation=0;" vertex="1" parent="vsU6i-emaXaHSrNS-JvM-31">
          <mxGeometry x="151" y="290.5" width="10" height="10" as="geometry" />
        </mxCell>
        <mxCell id="vsU6i-emaXaHSrNS-JvM-18" value="" style="endArrow=none;html=1;rounded=0;exitX=1;exitY=0.5;exitDx=0;exitDy=0;shape=link;entryX=0;entryY=0.5;entryDx=0;entryDy=0;" edge="1" parent="vsU6i-emaXaHSrNS-JvM-31" source="vsU6i-emaXaHSrNS-JvM-3" target="vsU6i-emaXaHSrNS-JvM-16">
          <mxGeometry width="50" height="50" relative="1" as="geometry">
            <mxPoint x="111" y="295.5" as="sourcePoint" />
            <mxPoint x="142" y="268" as="targetPoint" />
          </mxGeometry>
        </mxCell>
        <mxCell id="vsU6i-emaXaHSrNS-JvM-24" value="" style="triangle;whiteSpace=wrap;html=1;fillColor=#000000;rotation=-180;" vertex="1" parent="vsU6i-emaXaHSrNS-JvM-31">
          <mxGeometry x="601" y="290.5" width="10" height="10" as="geometry" />
        </mxCell>
        <mxCell id="vsU6i-emaXaHSrNS-JvM-29" value="" style="endArrow=classic;html=1;rounded=0;shape=link;entryX=0;entryY=0.5;entryDx=0;entryDy=0;exitX=0;exitY=0.5;exitDx=0;exitDy=0;" edge="1" parent="vsU6i-emaXaHSrNS-JvM-31" source="vsU6i-emaXaHSrNS-JvM-2" target="vsU6i-emaXaHSrNS-JvM-24">
          <mxGeometry width="50" height="50" relative="1" as="geometry">
            <mxPoint x="712" y="348" as="sourcePoint" />
            <mxPoint x="632" y="328" as="targetPoint" />
          </mxGeometry>
        </mxCell>
      </root>
    </mxGraphModel>
  </diagram>
</mxfile>
